<svg width="150" height="150" viewBox="0 0 150 150" fill="none" xmlns="http://www.w3.org/2000/svg">
<rect width="150" height="150" fill="#FDD540"/>
<path d="M113.826 82.09C112.656 80.2 110.991 78.76 108.831 77.77C106.671 76.69 104.061 76.15 101.001 76.15C95.2413 76.15 90.7863 78.04 87.6363 81.82C84.4863 85.51 82.9113 90.595 82.9113 97.075C82.9113 104.545 84.6663 110.125 88.1763 113.815C91.6863 117.505 97.0863 119.35 104.376 119.35C111.306 119.35 116.886 116.56 121.116 110.98H97.2213V89.785H145.956V119.755C141.816 126.865 136.101 132.985 128.811 138.115C121.521 143.155 112.296 145.675 101.136 145.675C91.2363 145.675 82.5963 143.65 75.2163 139.6C67.9263 135.46 62.3013 129.7 58.3413 122.32C54.4713 114.94 52.5363 106.525 52.5363 97.075C52.5363 87.625 54.4713 79.21 58.3413 71.83C62.3013 64.45 67.9263 58.735 75.2163 54.685C82.5063 50.545 91.0563 48.475 100.866 48.475C113.376 48.475 123.546 51.49 131.376 57.52C139.296 63.55 143.976 71.74 145.416 82.09H113.826Z" fill="white"/>
</svg>
